<?xml version="1.0" encoding="UTF-8"?>
<!DOCTYPE svg PUBLIC "-//W3C//DTD SVG 1.1//EN" "http://www.w3.org/Graphics/SVG/1.1/DTD/svg11.dtd">
<svg version="1.1" xmlns="http://www.w3.org/2000/svg" xmlns:xlink="http://www.w3.org/1999/xlink" x="0" y="0" width="870" height="441.5" viewBox="0, 0, 870, 441.5">
  <g id="Layer_1">
    <g>
      <path d="M5.5,6 L218.5,6 L218.5,147 L5.5,147 L5.5,6 z" fill="#FFFFFF"/>
      <path d="M5.5,6 L218.5,6 L218.5,147 L5.5,147 L5.5,6 z" fill-opacity="0" stroke="#000000" stroke-width="3"/>
    </g>
    <g>
      <path d="M652.5,6 L865.5,6 L865.5,147 L652.5,147 L652.5,6 z" fill="#FFFFFF"/>
      <path d="M652.5,6 L865.5,6 L865.5,147 L652.5,147 L652.5,6 z" fill-opacity="0" stroke="#000000" stroke-width="3"/>
    </g>
    <g>
      <path d="M652.5,294 L865.5,294 L865.5,437 L652.5,437 L652.5,294 z" fill="#FFFFFF"/>
      <path d="M652.5,294 L865.5,294 L865.5,437 L652.5,437 L652.5,294 z" fill-opacity="0" stroke="#000000" stroke-width="3"/>
    </g>
    <g>
      <path d="M364.5,6 L514.167,6 L514.167,147 L364.5,147 L364.5,6 z" fill="#FFFFFF"/>
      <path d="M364.5,6 L514.167,6 L514.167,147 L364.5,147 L364.5,6 z" fill-opacity="0" stroke="#000000" stroke-width="3"/>
    </g>
    <text transform="matrix(1, 0, 0, 1, 111.5, 76)">
      <tspan x="-82.044" y="11" font-family="Avenir-Medium" font-size="36" fill="#656565">Reference</tspan>
    </text>
    <text transform="matrix(1, 0, 0, 1, 758.5, 372.5)">
      <tspan x="-41.724" y="-13.5" font-family="Avenir-Medium" font-size="36" fill="#656565">Loop </tspan>
      <tspan x="-37.962" y="35.5" font-family="Avenir-Medium" font-size="36" fill="#656565">filter</tspan>
    </text>
    <text transform="matrix(1, 0, 0, 1, 758.5, 76)">
      <tspan x="-62.37" y="-40" font-family="Avenir-Medium" font-size="36" fill="#656565">Voltage </tspan>
      <tspan x="-82.71" y="9" font-family="Avenir-Medium" font-size="36" fill="#656565">controlled </tspan>
      <tspan x="-73.674" y="58" font-family="Avenir-Medium" font-size="36" fill="#656565">oscillator</tspan>
    </text>
    <text transform="matrix(1, 0, 0, 1, 437.956, 80.167)">
      <tspan x="-48.024" y="-14.5" font-family="Avenir-Medium" font-size="36" fill="#656565">Phase</tspan>
      <tspan x="-70.362" y="34.5" font-family="Avenir-Medium" font-size="36" fill="#656565">detector</tspan>
    </text>
    <g>
      <path d="M652.5,76.5 L527.767,76.5" fill-opacity="0" stroke="#000000" stroke-width="4"/>
      <path d="M527.767,76.5 L530.967,71.7 L518.167,76.5 L530.967,81.3 z" fill="#000000" fill-opacity="1" stroke="#000000" stroke-width="4" stroke-opacity="1"/>
    </g>
    <g>
      <path d="M218.5,76.5 L350.595,76.5" fill-opacity="0" stroke="#000000" stroke-width="4"/>
      <path d="M350.595,76.5 L347.395,81.3 L360.195,76.5 L347.395,71.7 z" fill="#000000" fill-opacity="1" stroke="#000000" stroke-width="4" stroke-opacity="1"/>
    </g>
    <g>
      <path d="M759,294 L759,162.219" fill-opacity="0" stroke="#000000" stroke-width="4"/>
      <path d="M759,162.219 L763.8,165.419 L759,152.618 L754.2,165.419 z" fill="#000000" fill-opacity="1" stroke="#000000" stroke-width="4" stroke-opacity="1"/>
    </g>
    <g>
      <path d="M640.9,365.5 L434.151,365.5 L434.151,147.12" fill-opacity="0" stroke="#000000" stroke-width="4"/>
      <path d="M640.9,365.5 L637.7,370.3 L650.5,365.5 L637.7,360.7 z" fill="#000000" fill-opacity="1" stroke="#000000" stroke-width="4" stroke-opacity="1"/>
    </g>
  </g>
</svg>
